<!DOCTYPE svg PUBLIC "-//W3C//DTD SVG 20010904//EN" "http://www.w3.org/TR/2001/REC-SVG-20010904/DTD/svg10.dtd">
<svg version="1.0" xmlns="http://www.w3.org/2000/svg" width="82px" height="60px" viewBox="0 0 820 600" preserveAspectRatio="xMidYMid meet">
<g id="layer101" fill="#000000" stroke="none">
 <path d="M0 335 l0 -265 25 0 c20 0 25 -5 25 -24 0 -23 4 -24 115 -36 64 -7 141 -9 173 -6 70 8 74 8 144 0 32 -3 109 -1 173 6 111 12 115 13 115 36 0 19 5 24 25 24 l25 0 0 265 0 265 -410 0 -410 0 0 -265z m790 5 c0 -147 -4 -230 -10 -230 -6 0 -10 78 -10 215 0 169 -3 215 -13 215 -7 0 -65 -6 -128 -14 -85 -11 -126 -12 -155 -4 -49 13 -79 13 -128 0 -29 -8 -70 -7 -155 4 -63 8 -121 14 -128 14 -10 0 -13 -46 -13 -215 0 -137 -4 -215 -10 -215 -6 0 -10 83 -10 230 l0 230 380 0 380 0 0 -230z m-503 145 l103 0 0 -217 0 -218 -27 -6 c-16 -3 -33 -7 -39 -9 -11 -3 -172 12 -211 21 l-23 4 0 220 0 220 48 -8 c26 -4 93 -7 149 -7z m443 -205 l0 -220 -22 -4 c-40 -9 -201 -24 -212 -21 -6 2 -23 6 -38 9 l-28 6 0 218 0 218 68 -4 c37 -2 99 1 137 6 39 5 76 10 83 11 9 1 12 -49 12 -219z"/>
 <path d="M102 394 c3 -16 19 -21 98 -32 114 -15 180 -9 180 17 0 16 -9 18 -67 17 -38 -1 -101 3 -141 8 -69 8 -74 7 -70 -10z"/>
 <path d="M102 323 c3 -15 20 -20 98 -31 116 -15 180 -9 180 17 0 16 -8 18 -62 17 -35 0 -98 3 -141 7 -74 8 -79 8 -75 -10z"/>
 <path d="M102 254 c3 -16 18 -21 93 -31 113 -14 185 -8 185 17 0 15 -9 17 -62 16 -35 0 -98 3 -141 8 -74 8 -79 7 -75 -10z"/>
 <path d="M102 184 c3 -16 19 -21 99 -30 112 -13 172 -7 177 18 3 15 -5 17 -55 15 -32 -1 -96 2 -141 7 -79 8 -84 7 -80 -10z"/>
 <path d="M100 116 c0 -22 38 -29 165 -30 96 -1 110 1 113 16 3 15 -4 17 -50 15 -29 -1 -92 2 -140 7 -78 7 -88 6 -88 -8z"/>
 <path d="M595 398 c-33 -5 -81 -6 -107 -3 -43 5 -48 4 -48 -14 0 -28 63 -35 180 -19 76 10 95 16 98 31 4 20 -22 21 -123 5z"/>
 <path d="M590 329 c-36 -5 -84 -7 -107 -4 -38 6 -43 4 -43 -14 0 -28 61 -34 180 -19 76 11 95 16 98 31 4 20 -19 21 -128 6z"/>
 <path d="M590 259 c-30 -5 -76 -7 -102 -4 -42 5 -48 3 -48 -13 0 -28 54 -33 175 -19 81 10 100 15 103 30 3 14 -3 17 -35 16 -21 -1 -63 -5 -93 -10z"/>
 <path d="M580 189 c-30 -5 -74 -6 -97 -3 -38 6 -43 4 -43 -14 0 -27 51 -33 176 -18 80 9 99 15 102 29 3 14 -4 17 -40 16 -24 -1 -68 -5 -98 -10z"/>
 <path d="M575 119 c-33 -4 -77 -5 -99 -2 -33 5 -38 4 -34 -13 3 -17 13 -19 113 -18 125 1 165 8 165 29 0 17 -42 18 -145 4z"/>
 </g>

</svg>