<!DOCTYPE svg PUBLIC "-//W3C//DTD SVG 20010904//EN" "http://www.w3.org/TR/2001/REC-SVG-20010904/DTD/svg10.dtd">
<svg version="1.0" xmlns="http://www.w3.org/2000/svg" width="72px" height="77px" viewBox="0 0 720 770" preserveAspectRatio="xMidYMid meet">
<g id="layer101" fill="#000000" stroke="none">
 <path d="M340 763 c-23 -9 -60 -45 -76 -75 -9 -17 -14 -58 -14 -108 l0 -80 191 0 c182 0 191 1 196 20 3 12 14 20 28 20 49 0 72 71 39 118 -8 12 -33 31 -54 42 -21 11 -55 31 -76 45 -33 22 -46 25 -128 24 -50 0 -98 -3 -106 -6z m200 -38 c33 -17 60 -52 60 -77 0 -16 -13 -18 -155 -18 -145 0 -155 1 -155 19 0 24 37 70 64 81 36 15 154 11 186 -5z m142 -100 c8 -19 8 -28 -2 -40 -22 -26 -40 -18 -40 19 0 19 -3 42 -7 51 -10 28 36 -1 49 -30z m-159 -32 c-46 -2 -120 -2 -165 0 -46 1 -9 3 82 3 91 0 128 -2 83 -3z m77 -48 c0 -13 -24 -15 -160 -15 -136 0 -160 2 -160 15 0 13 24 15 160 15 136 0 160 -2 160 -15z"/>
 <path d="M0 410 l0 -310 225 0 225 0 0 190 c0 162 -2 190 -15 190 -13 0 -15 -26 -15 -175 l0 -175 -195 0 -195 0 0 280 0 280 115 0 c96 0 115 3 115 15 0 13 -21 15 -130 15 l-130 0 0 -310z"/>
 <path d="M60 635 c0 -12 15 -15 75 -15 60 0 75 3 75 15 0 12 -15 15 -75 15 -60 0 -75 -3 -75 -15z"/>
 <path d="M60 585 c0 -12 15 -15 75 -15 60 0 75 3 75 15 0 12 -15 15 -75 15 -60 0 -75 -3 -75 -15z"/>
 <path d="M62 533 c3 -15 15 -18 73 -18 58 0 70 3 73 18 3 15 -6 17 -73 17 -67 0 -76 -2 -73 -17z"/>
 <path d="M60 480 c0 -20 5 -21 73 -18 56 2 72 6 72 18 0 12 -16 16 -72 18 -68 3 -73 2 -73 -18z"/>
 <path d="M240 420 l0 -61 73 3 72 3 3 58 3 57 -76 0 -75 0 0 -60z m120 5 c0 -23 -4 -25 -45 -25 -41 0 -45 2 -45 25 0 23 4 25 45 25 41 0 45 -2 45 -25z"/>
 <path d="M67 444 c-4 -4 -7 -13 -7 -21 0 -10 19 -13 76 -13 66 0 75 2 72 18 -3 14 -16 18 -69 20 -35 2 -68 0 -72 -4z"/>
 <path d="M60 375 c0 -12 15 -15 75 -15 60 0 75 3 75 15 0 12 -15 15 -75 15 -60 0 -75 -3 -75 -15z"/>
 <path d="M60 325 c0 -12 15 -15 75 -15 60 0 75 3 75 15 0 12 -15 15 -75 15 -60 0 -75 -3 -75 -15z"/>
 <path d="M240 325 c0 -12 15 -15 75 -15 60 0 75 3 75 15 0 12 -15 15 -75 15 -60 0 -75 -3 -75 -15z"/>
 <path d="M60 225 l0 -65 75 0 75 0 0 65 0 65 -75 0 -75 0 0 -65z m120 0 c0 -35 0 -35 -45 -35 -45 0 -45 0 -45 35 0 35 0 35 45 35 45 0 45 0 45 -35z"/>
 <path d="M240 275 c0 -12 15 -15 75 -15 60 0 75 3 75 15 0 12 -15 15 -75 15 -60 0 -75 -3 -75 -15z"/>
 <path d="M467 263 c-4 -3 -7 -12 -7 -20 0 -10 10 -12 38 -7 82 13 146 -58 121 -133 -12 -38 -59 -73 -97 -73 -28 0 -82 27 -82 40 0 6 -9 10 -21 10 -31 0 -20 -30 20 -57 40 -27 107 -31 152 -8 88 46 92 183 6 235 -31 19 -116 28 -130 13z"/>
 <path d="M240 225 c0 -12 15 -15 75 -15 60 0 75 3 75 15 0 12 -15 15 -75 15 -60 0 -75 -3 -75 -15z"/>
 <path d="M240 175 c0 -12 15 -15 75 -15 60 0 75 3 75 15 0 12 -15 15 -75 15 -60 0 -75 -3 -75 -15z"/>
 <path d="M460 135 c0 -8 9 -15 20 -15 13 0 20 -7 20 -20 0 -13 7 -20 20 -20 16 0 20 7 20 35 0 34 -1 35 -40 35 -29 0 -40 -4 -40 -15z"/>
 </g>

</svg>